<svg width="114" height="144" viewBox="0 0 114 144" fill="none" xmlns="http://www.w3.org/2000/svg">
<mask id="path-1-inside-1_404_38" fill="white">
<path d="M25 97.2168L83.0146 130.712L60 144L0 109.358V0H25V97.2168ZM70.373 29.9707L89 15H114V112.822L89 127.257V57.418L70 73L52 58.0645V110L27 96V15H52L70.373 29.9707Z"/>
</mask>
<path d="M25 97.2168L83.0146 130.712L60 144L0 109.358V0H25V97.2168ZM70.373 29.9707L89 15H114V112.822L89 127.257V57.418L70 73L52 58.0645V110L27 96V15H52L70.373 29.9707Z" fill="white"/>
<path d="M25 97.2168H17V101.836L21 104.145L25 97.2168ZM83.0146 130.712L87.0148 137.64L99.0143 130.712L87.0147 123.784L83.0146 130.712ZM60 144L56 150.928L60.0001 153.238L64.0001 150.928L60 144ZM0 109.358H-8V113.977L-4.00005 116.287L0 109.358ZM0 0V-8H-8V0H0ZM25 0H33V-8H25V0ZM70.373 29.9707L65.3196 36.1726L70.3385 40.262L75.3847 36.2063L70.373 29.9707ZM89 15V7H86.1836L83.9883 8.76436L89 15ZM114 15H122V7H114V15ZM114 112.822L118 119.75L122 117.441V112.822H114ZM89 127.257H81V141.114L93.0002 134.185L89 127.257ZM89 57.418H97V40.5109L83.927 51.2322L89 57.418ZM70 73L64.8915 79.1566L69.9702 83.3707L75.073 79.1858L70 73ZM52 58.0645L57.1085 51.9079L44 41.0311V58.0645H52ZM52 110L48.0912 116.98L60 123.649V110H52ZM27 96H19V100.689L23.0912 102.98L27 96ZM27 15V7H19V15H27ZM52 15L57.0534 8.79813L54.8466 7H52V15ZM25 97.2168L21 104.145L79.0146 137.64L83.0146 130.712L87.0147 123.784L29 90.2886L25 97.2168ZM83.0146 130.712L79.0145 123.784L55.9999 137.072L60 144L64.0001 150.928L87.0148 137.64L83.0146 130.712ZM60 144L64.0001 137.072L4.00005 102.43L0 109.358L-4.00005 116.287L56 150.928L60 144ZM0 109.358H8V0H0H-8V109.358H0ZM0 0V8H25V0V-8H0V0ZM25 0H17V97.2168H25H33V0H25ZM70.373 29.9707L75.3847 36.2063L94.0117 21.2356L89 15L83.9883 8.76436L65.3614 23.7351L70.373 29.9707ZM89 15V23H114V15V7H89V15ZM114 15H106V112.822H114H122V15H114ZM114 112.822L110 105.894L84.9998 120.329L89 127.257L93.0002 134.185L118 119.75L114 112.822ZM89 127.257H97V57.418H89H81V127.257H89ZM89 57.418L83.927 51.2322L64.927 66.8142L70 73L75.073 79.1858L94.073 63.6038L89 57.418ZM70 73L75.1085 66.8434L57.1085 51.9079L52 58.0645L46.8915 64.2211L64.8915 79.1566L70 73ZM52 58.0645H44V110H52H60V58.0645H52ZM52 110L55.9088 103.02L30.9088 89.02L27 96L23.0912 102.98L48.0912 116.98L52 110ZM27 96H35V15H27H19V96H27ZM27 15V23H52V15V7H27V15ZM52 15L46.9466 21.2019L65.3196 36.1726L70.373 29.9707L75.4264 23.7688L57.0534 8.79813L52 15Z" fill="white" mask="url(#path-1-inside-1_404_38)"/>
<mask id="path-3-inside-2_404_38" fill="white">
<path d="M25 97.2168L83.0146 130.712L60 144L0 109.358V0H25V97.2168ZM70.373 29.9707L89 15H114V112.822L89 127.257V57.418L70 73L52 58.0645V110L27 96V15H52L70.373 29.9707Z"/>
</mask>
<path d="M25 97.2168H19V100.681L22 102.413L25 97.2168ZM83.0146 130.712L86.0147 135.908L95.0144 130.712L86.0147 125.516L83.0146 130.712ZM60 144L57 149.196L60 150.928L63.0001 149.196L60 144ZM0 109.358H-6V112.822L-3.00004 114.555L0 109.358ZM0 0V-6H-6V0H0ZM25 0H31V-6H25V0ZM70.373 29.9707L66.583 34.6221L70.3471 37.6892L74.1318 34.6474L70.373 29.9707ZM89 15V9H86.8877L85.2413 10.3233L89 15ZM114 15H120V9H114V15ZM114 112.822L117 118.018L120 116.286V112.822H114ZM89 127.257H83V137.649L92.0001 132.453L89 127.257ZM89 57.418H95V44.7376L85.1952 52.7786L89 57.418ZM70 73L66.1687 77.6174L69.9777 80.778L73.8048 77.6394L70 73ZM52 58.0645L55.8313 53.447L46 45.2894V58.0645H52ZM52 110L49.0684 115.235L58 120.237V110H52ZM27 96H21V99.5167L24.0684 101.235L27 96ZM27 15V9H21V15H27ZM52 15L55.7901 10.3486L54.135 9H52V15ZM25 97.2168L22 102.413L80.0146 135.908L83.0146 130.712L86.0147 125.516L28 92.0207L25 97.2168ZM83.0146 130.712L80.0145 125.516L56.9999 138.804L60 144L63.0001 149.196L86.0147 135.908L83.0146 130.712ZM60 144L63 138.804L3.00004 104.162L0 109.358L-3.00004 114.555L57 149.196L60 144ZM0 109.358H6V0H0H-6V109.358H0ZM0 0V6H25V0V-6H0V0ZM25 0H19V97.2168H25H31V0H25ZM70.373 29.9707L74.1318 34.6474L92.7587 19.6767L89 15L85.2413 10.3233L66.6143 25.294L70.373 29.9707ZM89 15V21H114V15V9H89V15ZM114 15H108V112.822H114H120V15H114ZM114 112.822L111 107.626L85.9999 122.061L89 127.257L92.0001 132.453L117 118.018L114 112.822ZM89 127.257H95V57.418H89H83V127.257H89ZM89 57.418L85.1952 52.7786L66.1952 68.3606L70 73L73.8048 77.6394L92.8048 62.0573L89 57.418ZM70 73L73.8313 68.3826L55.8313 53.447L52 58.0645L48.1687 62.6819L66.1687 77.6174L70 73ZM52 58.0645H46V110H52H58V58.0645H52ZM52 110L54.9316 104.765L29.9316 90.765L27 96L24.0684 101.235L49.0684 115.235L52 110ZM27 96H33V15H27H21V96H27ZM27 15V21H52V15V9H27V15ZM52 15L48.2099 19.6514L66.583 34.6221L70.373 29.9707L74.1631 25.3193L55.7901 10.3486L52 15Z" fill="black" mask="url(#path-3-inside-2_404_38)"/>
</svg>
